<?xml version="1.0" encoding="UTF-8"?>
<svg id="Layer_2" data-name="Layer 2" xmlns="http://www.w3.org/2000/svg" viewBox="0 0 207.07 144.09">
  <defs>
    <style>
      .cls-1 {
        fill: #b5711e;
      }

      .cls-2 {
        fill: #f9b262;
      }
    </style>
  </defs>
  <g id="OBJECTS">
    <g>
      <path class="cls-2" d="M126.07,81v27c0-14.91-12.09-27-27-27h-18c-14.91,0-27-12.09-27-27h45c14.91,0,27,12.09,27,27Z"/>
      <path class="cls-1" d="M126.07,108v9.09c0,14.91-12.09,27-27,27h-31.94c.61,0,1.21-.03,1.81-.07-26.29-1.12-48.99-16.34-60.6-38.32-2.16-4.07-3.93-8.37-5.27-12.86-3.62-12.11-4.59-25.31.1-37.28.21-.52.42-1.04.65-1.56,5.21-11.92,15.43-21.15,28-25.01,4.19-1.3,8.64-1.99,13.25-1.99h19.72c-5.84.69-18.01,7.79-19.99,9.3-10.16,7.74-16.92,19.72-17.66,33.29,0,.09,0,.19,0,.29-.04.73-.06,1.47-.06,2.21,0,6.4,1.34,12.48,3.75,18,6.94,15.89,22.8,27,41.25,27h18c4.97,0,9-4.03,9-9v-27.09c14.91,0,27,12.09,27,27Z"/>
      <path class="cls-1" d="M207.07,0c0,14.91-12.09,27-27,27h-18c0-14.91,12.09-27,27-27h18Z"/>
      <path class="cls-2" d="M189.07,0c-14.91,0-27,12.09-27,27v117h-27V36c0-4.97-4.03-9-9-9H45.07c-4.61,0-9.06.69-13.25,1.99-12.57,3.86-22.79,13.09-28,25.01-1.83,4.2-3.05,8.72-3.52,13.45v.03c-.11,1.09-.18,2.2-.21,3.32,0-.43,0-.86.02-1.3.02-.54.04-1.07.07-1.61v-.03c1.04-18.23,8.86-34.65,20.98-46.77C34.19,8.06,52.19,0,72.07,0h117Z"/>
      <path class="cls-2" d="M.3,67.48c-.11,1.09-.18,2.2-.21,3.32,0-.43,0-.86.02-1.3.02-.54.04-1.07.07-1.61.01.02.01.05.01.08.04-.22.07-.38.11-.49Z"/>
    </g>
  </g>
</svg>